<svg xmlns="http://www.w3.org/2000/svg" viewBox="0 0 512 512">
  <defs>
    <linearGradient id="bg" x1="84" y1="32" x2="430" y2="486" gradientUnits="userSpaceOnUse">
      <stop stop-color="#0B3678"/>
      <stop offset="1" stop-color="#03122C"/>
    </linearGradient>
    <linearGradient id="gold" x1="118" y1="96" x2="400" y2="398" gradientUnits="userSpaceOnUse">
      <stop stop-color="#FFD064"/>
      <stop offset="1" stop-color="#F6A915"/>
    </linearGradient>
  </defs>
  <rect width="512" height="512" rx="112" fill="url(#bg)"/>
  <path fill="url(#gold)" d="M391.8 165.2c14.9-4 28.1 9.3 24.1 24.1-3.4 12.7-14.2 28.1-31.9 45.8l-30.3 30.3 42.2 143.2-34.4 34.4-69.1-115.9-58.7 58.7 8.1 50-28.1 28.1-27.4-65.4-65.4-27.4 28.1-28.1 50 8.1 58.7-58.7-115.9-69.1 34.4-34.4 143.2 42.2 30.3-30.3c17.7-17.7 33.1-28.5 46.1-31.6Z"/>
  <path fill="#FFF6DC" fill-opacity=".88" d="M122.8 92.8c59.7 16 110.7 42.1 152.8 78.3l-33.8 14.1C203.5 157 159.7 134.6 110.5 118l12.3-25.2ZM86 164.2c54.6 4.1 102.9 17.5 144.9 40.1l-28.2 18.3c-35.5-15.3-76.3-25.5-122.2-30.8L86 164.2ZM95.4 238.2c34.4-1.2 66.2 2.7 95.2 11.5l-22.8 21c-22.1-4.1-47.8-5.7-77.1-4.7l4.7-27.8Z"/>
</svg>
